<?xml version="1.0" encoding="iso-8859-1"?>
<!-- Generator: Adobe Illustrator 19.0.0, SVG Export Plug-In . SVG Version: 6.00 Build 0)  -->
<svg version="1.1" id="Capa_1" xmlns="http://www.w3.org/2000/svg" xmlns:xlink="http://www.w3.org/1999/xlink" x="0px" y="0px"
	 viewBox="0 0 512 512" style="enable-background:new 0 0 512 512;" xml:space="preserve">
<polygon style="fill:#54B88B;" points="233.508,79.268 188.621,95.605 230.217,188.917 263.975,176.63 "/>
<path style="opacity:0.1;enable-background:new    ;" d="M188.621,95.605l22.983,51.558c2.336-2.343,4.434-4.86,6.257-7.521
	c4.737-6.914,13.481-10.096,21.554-7.845c3.571,0.996,7.298,1.615,11.11,1.85l-17.017-54.379L188.621,95.605z"/>
<path style="fill:#FC9F65;" d="M364.801,509.823c70.556-25.68,3.352-242.44-11.999-288.924
	c-15.35-46.484-57.841-71.23-111.922-51.546s-70.725,65.953-52.604,111.429S294.245,535.504,364.801,509.823z"/>
<path style="fill:#54B88B;" d="M247.174,18.705c-4.624,0.54-9.231-0.945-12.598-4.159c-13.971-13.336-34.801-18.424-54.18-11.37
	c-19.379,7.053-32.065,24.34-34.196,43.537c-0.514,4.627-3.088,8.726-6.977,11.284c-19.305,12.697-28.585,35.681-21.089,56.277
	c8.922,24.512,38.222,36.351,65.444,26.443c11.574-4.212,20.902-11.679,27.12-20.755c4.737-6.914,13.481-10.096,21.553-7.845
	c10.597,2.955,22.542,2.679,34.116-1.534c27.222-9.908,42.058-37.811,33.136-62.323C292.007,27.664,270.124,16.022,247.174,18.705z"
	/>
<path style="opacity:0.1;enable-background:new    ;" d="M283.319,195.118c0.851,0,1.718-0.146,2.564-0.454l40.27-14.656
	c-4.835-4.067-10.133-7.489-15.844-10.197l-29.557,10.757c-3.892,1.417-5.899,5.721-4.482,9.613
	C277.379,193.227,280.255,195.118,283.319,195.118z M348.488,376.745c1.108,3.046,3.984,4.936,7.049,4.936
	c0.851,0,1.718-0.147,2.564-0.454l32.322-11.764c-0.815-5-1.693-10.009-2.624-15.008l-34.829,12.676
	C349.079,368.549,347.071,372.852,348.488,376.745z M223.521,238.794l21.006-7.645c3.892-1.417,5.9-5.721,4.482-9.613
	c-1.417-3.892-5.721-5.898-9.613-4.482l-21.006,7.645c-3.892,1.417-5.899,5.721-4.482,9.613c1.108,3.045,3.984,4.936,7.049,4.936
	C221.809,239.248,222.675,239.101,223.521,238.794z M300.1,435.226l-28.203,10.266c2.964,4.358,5.964,8.599,8.994,12.69l24.34-8.859
	c3.892-1.417,5.899-5.721,4.482-9.613C308.296,435.816,303.991,433.811,300.1,435.226z M356.38,452.436l-22.017,8.013
	c-3.892,1.417-5.899,5.721-4.482,9.613c1.108,3.046,3.984,4.936,7.049,4.936c0.851,0,1.718-0.146,2.564-0.454l22.017-8.013
	c3.892-1.417,5.898-5.721,4.482-9.613C364.576,453.027,360.276,451.019,356.38,452.436z M349.016,334.337
	c-1.416-3.892-5.721-5.898-9.613-4.482l-24.405,8.883c-3.892,1.417-5.899,5.721-4.483,9.613c1.108,3.045,3.984,4.936,7.049,4.936
	c0.852,0,1.718-0.147,2.564-0.454l24.405-8.883C348.425,342.533,350.433,338.229,349.016,334.337z M260.577,339.259l-40.14,14.61
	c2.141,4.446,4.358,8.97,6.644,13.545l38.627-14.059c3.893-1.417,5.899-5.721,4.482-9.613
	C268.773,339.849,264.47,337.845,260.577,339.259z"/>
<g>
	<path style="fill:#414B58;" d="M235.291,291.415c-3.064,0-5.94-1.891-7.049-4.936l-2.523-6.931
		c-1.417-3.892,0.591-8.196,4.482-9.613c3.896-1.416,8.197,0.591,9.613,4.482l2.523,6.931c1.417,3.893-0.591,8.196-4.482,9.613
		C237.009,291.268,236.142,291.415,235.291,291.415z"/>
	<path style="fill:#414B58;" d="M318.8,261.02c-3.064,0-5.94-1.892-7.049-4.938l-2.522-6.932c-1.416-3.893,0.591-8.196,4.483-9.612
		c3.892-1.417,8.196,0.592,9.612,4.483l2.523,6.932c1.416,3.893-0.591,8.196-4.483,9.612
		C320.518,260.874,319.65,261.02,318.8,261.02z"/>
	<path style="fill:#414B58;" d="M273.677,282.474c-3.858,0-7.7-0.97-11.157-2.881c-3.625-2.004-4.938-6.567-2.935-10.192
		c2.005-3.625,6.568-4.937,10.192-2.935c2.038,1.126,4.457,1.318,6.639,0.524s3.913-2.496,4.751-4.67
		c1.488-3.865,5.829-5.792,9.694-4.302c3.865,1.489,5.791,5.829,4.302,9.694c-2.396,6.222-7.359,11.096-13.616,13.373
		C278.996,282.015,276.332,282.474,273.677,282.474z"/>
</g>
<path style="opacity:0.1;enable-background:new    ;" d="M221.209,178.624c-38.217,22.787-48.631,62.764-32.933,102.159
	c18.12,45.476,105.969,254.721,176.525,229.041c5.14-1.871,9.544-4.762,13.295-8.522
	C284.527,443.418,172.521,243.13,221.209,178.624z"/>
<path style="opacity:0.1;enable-background:new    ;" d="M165.62,54.647c-8.09-13.76-3.777-35.62,8.302-48.607
	c-15.613,8.187-25.718,23.52-27.688,40.367c-0.552,4.724-3.131,9.026-7.1,11.647c-19.245,12.709-28.486,35.654-21.001,56.219
	c8.922,24.512,38.222,36.351,65.444,26.443c10.974-3.994,19.925-10.917,26.124-19.361c-47.532,14.926-61.34-31.487-44.882-52.651
	C167.961,64.666,168.213,59.057,165.62,54.647z"/>
<g>
</g>
<g>
</g>
<g>
</g>
<g>
</g>
<g>
</g>
<g>
</g>
<g>
</g>
<g>
</g>
<g>
</g>
<g>
</g>
<g>
</g>
<g>
</g>
<g>
</g>
<g>
</g>
<g>
</g>
</svg>
