<?xml version="1.0"?>
<svg xmlns="http://www.w3.org/2000/svg" xmlns:xlink="http://www.w3.org/1999/xlink" version="1.1" id="Capa_1" x="0px" y="0px" viewBox="0 0 512.001 512.001" style="enable-background:new 0 0 512.001 512.001;" xml:space="preserve" width="512px" height="512px"><g><g>
	<g>
		<path d="M496.941,357.15h-8.321V113.909c0-32.78-26.669-59.45-59.45-59.45H82.83c-32.78,0-59.449,26.669-59.449,59.45V357.15    h-8.322C6.742,357.15,0,363.893,0,372.209v28.441c0,31.37,25.521,56.892,56.892,56.892h398.218    c31.37,0,56.892-25.521,56.892-56.892v-28.441C512,363.893,505.259,357.15,496.941,357.15z M53.498,113.909    c0-16.173,13.158-29.332,29.331-29.332h346.342c16.173,0,29.332,13.158,29.332,29.332V357.15H53.498V113.909z M481.883,400.65    c0,14.763-12.011,26.774-26.774,26.774H56.892c-14.763,0-26.774-12.011-26.774-26.774v-13.382h8.322h435.122h8.321V400.65z" data-original="#000000" class="active-path" data-old_color="#faae3e" fill="#faae3e"/>
	</g>
</g><g>
	<g>
		<path d="M256,152.572c-23.178,0-42.036,18.856-42.036,42.035v52.516c0,23.178,18.857,42.035,42.036,42.035    s42.035-18.856,42.035-42.035v-52.516C298.036,171.428,279.178,152.572,256,152.572z M267.918,247.121    c0,6.572-5.346,11.917-11.917,11.917s-11.918-5.346-11.918-11.917v-52.516c0-6.572,5.347-11.917,11.918-11.917    s11.917,5.346,11.917,11.917V247.121z" data-original="#000000" class="active-path" data-old_color="#faae3e" fill="#faae3e"/>
	</g>
</g><g>
	<g>
		<path d="M173.916,152.572c-8.316,0-15.059,6.742-15.059,15.059v38.175h-23.836V167.63c0-8.316-6.742-15.059-15.059-15.059    s-15.059,6.742-15.059,15.059v53.233c0,8.316,6.742,15.059,15.059,15.059h38.894v38.175c0,8.316,6.742,15.059,15.059,15.059    s15.059-6.742,15.059-15.059V167.63C188.975,159.314,182.233,152.572,173.916,152.572z" data-original="#000000" class="active-path" data-old_color="#faae3e" fill="#faae3e"/>
	</g>
</g><g>
	<g>
		<path d="M392.038,152.572c-8.316,0-15.059,6.742-15.059,15.059v38.175h-23.836V167.63c0-8.316-6.742-15.059-15.059-15.059    c-8.316,0-15.059,6.742-15.059,15.059v53.233c0,8.316,6.742,15.059,15.059,15.059h38.894v38.175    c0,8.316,6.742,15.059,15.059,15.059c8.316,0,15.059-6.742,15.059-15.059V167.63C407.096,159.314,400.354,152.572,392.038,152.572    z" data-original="#000000" class="active-path" data-old_color="#faae3e" fill="#faae3e"/>
	</g>
</g></g> </svg>
