<?xml version="1.0" encoding="UTF-8" standalone="no"?>
<svg width="60px" height="60px" viewBox="0 0 60 60" version="1.1" xmlns="http://www.w3.org/2000/svg" xmlns:xlink="http://www.w3.org/1999/xlink">
    <!-- Generator: Sketch 48.2 (47327) - http://www.bohemiancoding.com/sketch -->
    <title>checked</title>
    <desc>Created with Sketch.</desc>
    <defs></defs>
    <g id="Page-1-Copy" stroke="none" stroke-width="1" fill="none" fill-rule="evenodd">
        <g id="checked" fill="#00293c" fill-rule="nonzero">
            <path d="M26.375,39.781 C26.559,39.928 26.78,40 27,40 C27.276,40 27.551,39.886 27.748,39.664 L43.748,21.664 C44.115,21.252 44.078,20.619 43.665,20.253 C43.251,19.885 42.62,19.923 42.253,20.336 L26.884,37.626 L17.625,30.219 C17.195,29.874 16.564,29.946 16.22,30.375 C15.875,30.807 15.945,31.436 16.376,31.781 L26.375,39.781 Z" id="Shape"></path>
            <path d="M0,0 L0,60 L60,60 L60,0 L0,0 Z M58,58 L2,58 L2,2 L58,2 L58,58 Z" id="Shape"></path>
        </g>
    </g>
</svg>