<?xml version="1.0" encoding="UTF-8" standalone="no"?>
<svg width="52px" height="52px" viewBox="0 0 52 52" version="1.1" xmlns="http://www.w3.org/2000/svg" xmlns:xlink="http://www.w3.org/1999/xlink">
    <!-- Generator: Sketch 48.2 (47327) - http://www.bohemiancoding.com/sketch -->
    <title>info</title>
    <desc>Created with Sketch.</desc>
    <defs></defs>
    <g id="Page-1-Copy" stroke="none" stroke-width="1" fill="none" fill-rule="evenodd">
        <g id="info" fill="#00293c" fill-rule="nonzero">
            <path d="M26,0 C11.664,0 0,11.663 0,26 C0,40.337 11.664,52 26,52 C40.336,52 52,40.337 52,26 C52,11.663 40.336,0 26,0 Z M26,50 C12.767,50 2,39.233 2,26 C2,12.767 12.767,2 26,2 C39.233,2 50,12.767 50,26 C50,39.233 39.233,50 26,50 Z" id="Shape"></path>
            <g id="Group" transform="translate(18.000000, 10.000000)">
                <path d="M8,28 C7.447,28 7,28.447 7,29 L7,31 C7,31.553 7.447,32 8,32 C8.553,32 9,31.553 9,31 L9,29 C9,28.447 8.553,28 8,28 Z" id="Shape"></path>
                <path d="M8.113,0.001 C8.075,0.001 8.037,0 7.998,0 C5.882,0 3.892,0.815 2.383,2.304 C0.847,3.819 0,5.842 0,8 C0,8.553 0.447,9 1,9 C1.553,9 2,8.553 2,8 C2,6.382 2.635,4.864 3.787,3.728 C4.94,2.591 6.475,1.963 8.086,2.001 C11.247,2.045 13.955,4.753 13.999,7.914 C14.028,9.998 13,11.916 11.248,13.046 C8.588,14.762 7,17.794 7,21.158 L7,24 C7,24.553 7.447,25 8,25 C8.553,25 9,24.553 9,24 L9,21.158 C9,18.516 10.276,16.053 12.332,14.726 C14.667,13.22 16.038,10.663 15.999,7.886 C15.939,3.599 12.401,0.061 8.113,0.001 Z" id="Shape"></path>
            </g>
        </g>
    </g>
</svg>