<?xml version="1.0" encoding="UTF-8" standalone="no"?>
<svg width="59px" height="45px" viewBox="0 0 59 45" version="1.1" xmlns="http://www.w3.org/2000/svg" xmlns:xlink="http://www.w3.org/1999/xlink">
    <!-- Generator: Sketch 48.2 (47327) - http://www.bohemiancoding.com/sketch -->
    <title>download</title>
    <desc>Created with Sketch.</desc>
    <defs></defs>
    <g id="Page-1-Copy" stroke="none" stroke-width="1" fill="none" fill-rule="evenodd">
        <g id="download" transform="translate(29.500000, 22.500000) rotate(-90.000000) translate(-29.500000, -22.500000) translate(7.000000, -7.000000)" fill="#00293c" fill-rule="nonzero">
            <path d="M13.187,28.313 C12.796,27.922 12.164,27.922 11.773,28.313 C11.382,28.704 11.382,29.336 11.773,29.727 L21.752,39.706 C21.938,39.895 22.192,40 22.458,40 C22.465,40 22.472,39.996 22.479,39.996 C22.486,39.996 22.492,40 22.5,40 C22.833,40 23.113,39.827 23.295,39.577 L33.186,29.686 C33.577,29.295 33.577,28.663 33.186,28.272 C32.795,27.881 32.163,27.881 31.772,28.272 L23.5,36.544 L23.5,1 C23.5,0.447 23.053,0 22.5,0 C21.947,0 21.5,0.447 21.5,1 L21.5,36.628 L13.187,28.313 Z" id="Shape"></path>
            <path d="M29.5,16 C28.947,16 28.5,16.447 28.5,17 C28.5,17.553 28.947,18 29.5,18 L42.5,18 L42.5,57 L2.5,57 L2.5,18 L15.5,18 C16.053,18 16.5,17.553 16.5,17 C16.5,16.447 16.053,16 15.5,16 L0.5,16 L0.5,59 L44.5,59 L44.5,16 L29.5,16 Z" id="Shape"></path>
        </g>
    </g>
</svg>