<?xml version="1.0" encoding="UTF-8" standalone="no"?>
<svg width="54px" height="54px" viewBox="0 0 54 54" version="1.1" xmlns="http://www.w3.org/2000/svg" xmlns:xlink="http://www.w3.org/1999/xlink">
    <!-- Generator: Sketch 48.2 (47327) - http://www.bohemiancoding.com/sketch -->
    <title>right-arrow (1)</title>
    <desc>Created with Sketch.</desc>
    <defs></defs>
    <g id="Page-1-Copy" stroke="none" stroke-width="1" fill="none" fill-rule="evenodd">
        <g id="right-arrow-(1)" fill="#00293c" fill-rule="nonzero">
            <path d="M0,0 L0,54 L54,54 L54,0 L0,0 Z M52,52 L2,52 L2,2 L52,2 L52,52 Z" id="Shape"></path>
            <path d="M18.293,44.707 C18.488,44.902 18.744,45 19,45 C19.256,45 19.512,44.902 19.707,44.707 L37.414,27 L19.707,9.293 C19.316,8.902 18.684,8.902 18.293,9.293 C17.902,9.684 17.902,10.316 18.293,10.707 L34.586,27 L18.293,43.293 C17.902,43.684 17.902,44.316 18.293,44.707 Z" id="Shape"></path>
        </g>
    </g>
</svg>