<?xml version="1.0" encoding="UTF-8" standalone="no"?>
<svg width="54px" height="34px" viewBox="0 0 54 34" version="1.1" xmlns="http://www.w3.org/2000/svg" xmlns:xlink="http://www.w3.org/1999/xlink">
    <!-- Generator: Sketch 48.2 (47327) - http://www.bohemiancoding.com/sketch -->
    <title>next</title>
    <desc>Created with Sketch.</desc>
    <defs></defs>
    <g id="Page-1-Copy" stroke="none" stroke-width="1" fill="none" fill-rule="evenodd">
        <g id="next" fill="#00293c" fill-rule="nonzero">
            <path d="M46.923,16.618 C46.872,16.495 46.799,16.385 46.706,16.292 L30.707,0.293 C30.316,-0.098 29.684,-0.098 29.293,0.293 C28.902,0.684 28.902,1.316 29.293,1.707 L43.586,16 L1,16 C0.447,16 0,16.448 0,17 C0,17.552 0.447,18 1,18 L43.586,18 L29.293,32.293 C28.902,32.684 28.902,33.316 29.293,33.707 C29.488,33.902 29.744,34 30,34 C30.256,34 30.512,33.902 30.707,33.707 L46.706,17.708 C46.799,17.616 46.872,17.505 46.923,17.382 C47.024,17.138 47.024,16.862 46.923,16.618 Z" id="Shape"></path>
            <path d="M53,0 C52.447,0 52,0.448 52,1 L52,33 C52,33.552 52.447,34 53,34 C53.553,34 54,33.552 54,33 L54,1 C54,0.448 53.553,0 53,0 Z" id="Shape"></path>
        </g>
    </g>
</svg>