<?xml version="1.0" encoding="UTF-8" standalone="no"?>
<svg width="60px" height="36px" viewBox="0 0 60 36" version="1.1" xmlns="http://www.w3.org/2000/svg" xmlns:xlink="http://www.w3.org/1999/xlink">
    <!-- Generator: Sketch 48.2 (47327) - http://www.bohemiancoding.com/sketch -->
    <title>switch-on</title>
    <desc>Created with Sketch.</desc>
    <defs></defs>
    <g id="Page-1-Copy" stroke="none" stroke-width="1" fill="none" fill-rule="evenodd">
        <g id="switch-on" fill="#00293c" fill-rule="nonzero">
            <path d="M42,0 L18,0 C8.075,0 0,8.075 0,18 C0,27.925 8.075,36 18,36 L42,36 C51.925,36 60,27.925 60,18 C60,8.075 51.925,0 42,0 Z M42,34 L18,34 C9.178,34 2,26.822 2,18 C2,9.178 9.178,2 18,2 L42,2 C50.822,2 58,9.178 58,18 C58,26.822 50.822,34 42,34 Z" id="Shape"></path>
            <path d="M18,5 C10.832,5 5,10.832 5,18 C5,25.168 10.832,31 18,31 C25.168,31 31,25.168 31,18 C31,10.832 25.168,5 18,5 Z M18,29 C11.935,29 7,24.065 7,18 C7,11.935 11.935,7 18,7 C24.065,7 29,11.935 29,18 C29,24.065 24.065,29 18,29 Z" id="Shape"></path>
            <path d="M48.293,13.293 L41,20.586 L37.707,17.293 C37.316,16.902 36.684,16.902 36.293,17.293 C35.902,17.684 35.902,18.316 36.293,18.707 L40.293,22.707 C40.488,22.902 40.744,23 41,23 C41.256,23 41.512,22.902 41.707,22.707 L49.707,14.707 C50.098,14.316 50.098,13.684 49.707,13.293 C49.316,12.902 48.684,12.902 48.293,13.293 Z" id="Shape"></path>
        </g>
    </g>
</svg>