<?xml version="1.0" encoding="UTF-8" standalone="no"?>
<svg width="60px" height="36px" viewBox="0 0 60 36" version="1.1" xmlns="http://www.w3.org/2000/svg" xmlns:xlink="http://www.w3.org/1999/xlink">
    <!-- Generator: Sketch 48.2 (47327) - http://www.bohemiancoding.com/sketch -->
    <title>switch-off</title>
    <desc>Created with Sketch.</desc>
    <defs></defs>
    <g id="Page-1-Copy" stroke="none" stroke-width="1" fill="none" fill-rule="evenodd">
        <g id="switch-off" fill="#00293c" fill-rule="nonzero">
            <path d="M42,0 L18,0 C8.075,0 0,8.075 0,18 C0,27.925 8.075,36 18,36 L42,36 C51.925,36 60,27.925 60,18 C60,8.075 51.925,0 42,0 Z M42,34 L18,34 C9.178,34 2,26.822 2,18 C2,9.178 9.178,2 18,2 L42,2 C50.822,2 58,9.178 58,18 C58,26.822 50.822,34 42,34 Z" id="Shape"></path>
            <path d="M42,5 C34.832,5 29,10.832 29,18 C29,25.168 34.832,31 42,31 C49.168,31 55,25.168 55,18 C55,10.832 49.168,5 42,5 Z M42,29 C35.935,29 31,24.065 31,18 C31,11.935 35.935,7 42,7 C48.065,7 53,11.935 53,18 C53,24.065 48.065,29 42,29 Z" id="Shape"></path>
            <path d="M17,9 C16.447,9 16,9.447 16,10 L16,26 C16,26.553 16.447,27 17,27 C17.553,27 18,26.553 18,26 L18,10 C18,9.447 17.553,9 17,9 Z" id="Shape"></path>
        </g>
    </g>
</svg>