<?xml version="1.0" encoding="UTF-8" standalone="no"?>
<svg width="56px" height="52px" viewBox="0 0 56 52" version="1.1" xmlns="http://www.w3.org/2000/svg" xmlns:xlink="http://www.w3.org/1999/xlink">
    <!-- Generator: Sketch 48.2 (47327) - http://www.bohemiancoding.com/sketch -->
    <title>tabs</title>
    <desc>Created with Sketch.</desc>
    <defs></defs>
    <g id="Page-1-Copy" stroke="none" stroke-width="1" fill="none" fill-rule="evenodd">
        <g id="tabs" fill="#00293c" fill-rule="nonzero">
            <path d="M0,12.5 L0,51.5 L56,51.5 L56,12.5 L0,12.5 Z M54,49.5 L2,49.5 L2,14.5 L54,14.5 L54,49.5 Z" id="Shape"></path>
            <!--<path d="M3,10.5 L53,10.5 C53.552,10.5 54,10.052 54,9.5 C54,8.948 53.552,8.5 53,8.5 L3,8.5 C2.448,8.5 2,8.948 2,9.5 C2,10.052 2.448,10.5 3,10.5 Z" id="Shape"></path>-->
            <path d="M6,6.5 L50,6.5 C50.552,6.5 51,6.052 51,5.5 C51,4.948 50.552,4.5 50,4.5 L6,4.5 C5.448,4.5 5,4.948 5,5.5 C5,6.052 5.448,6.5 6,6.5 Z" id="Shape"></path>
            <path d="M9,2.5 L47,2.5 C47.552,2.5 48,2.052 48,1.5 C48,0.948 47.552,0.5 47,0.5 L9,0.5 C8.448,0.5 8,0.948 8,1.5 C8,2.052 8.448,2.5 9,2.5 Z" id="Shape"></path>
        </g>
    </g>
</svg>