<?xml version="1.0" encoding="UTF-8" standalone="no"?>
<svg width="56px" height="55px" viewBox="0 0 56 55" version="1.1" xmlns="http://www.w3.org/2000/svg" xmlns:xlink="http://www.w3.org/1999/xlink">
    <!-- Generator: Sketch 48.2 (47327) - http://www.bohemiancoding.com/sketch -->
    <title>tabs</title>
    <desc>Created with Sketch.</desc>
    <defs></defs>
    <g id="Page-1-Copy" stroke="none" stroke-width="1" fill="none" fill-rule="evenodd">
        <g id="tabs" fill="#00293c" fill-rule="nonzero">
            <path d="M0,16.4999872 L0,53.5 C6.76353751e-17,54.0522847 0.44771525,54.5 1,54.5 L55,54.5 C55.5522847,54.5 56,54.0522847 56,53.5 L56,16.4999872 C56,15.9477024 55.5522847,15.4999872 55,15.4999872 L1,15.4999872 C0.44771525,15.4999872 -6.76353751e-17,15.9477024 0,16.4999872 Z M54,52.5 L2,52.5 L2,17.5 L54,17.5 L54,52.5 Z" id="Shape"></path>
            <path d="M3,12.5 L53,12.5 C53.552,12.5 54,12.052 54,11.5 C54,10.948 53.552,10.5 53,10.5 L3,10.5 C2.448,10.5 2,10.948 2,11.5 C2,12.052 2.448,12.5 3,12.5 Z" id="Shape"></path>
            <path d="M6,7.5 L50,7.5 C50.552,7.5 51,7.052 51,6.5 C51,5.948 50.552,5.5 50,5.5 L6,5.5 C5.448,5.5 5,5.948 5,6.5 C5,7.052 5.448,7.5 6,7.5 Z" id="Shape"></path>
            <path d="M9,2.5 L47,2.5 C47.552,2.5 48,2.052 48,1.5 C48,0.948 47.552,0.5 47,0.5 L9,0.5 C8.448,0.5 8,0.948 8,1.5 C8,2.052 8.448,2.5 9,2.5 Z" id="Shape"></path>
        </g>
    </g>
</svg>